<?xml version="1.0" standalone="no"?>
<!DOCTYPE svg PUBLIC "-//W3C//DTD SVG 20010904//EN"
 "http://www.w3.org/TR/2001/REC-SVG-20010904/DTD/svg10.dtd">
<svg version="1.0" xmlns="http://www.w3.org/2000/svg"
 width="545.000000pt" height="545.000000pt" viewBox="0 0 545.000000 545.000000"
 preserveAspectRatio="xMidYMid meet">
<metadata>
Created by potrace 1.11, written by Peter Selinger 2001-2013
</metadata>
<g transform="translate(0.000000,545.000000) scale(0.100000,-0.100000)"
fill="#000000" stroke="none">
<path d="M2210 5388 c-11 -12 -20 -24 -21 -27 0 -3 -3 -15 -6 -26 -12 -43 -11
-154 2 -206 7 -29 32 -115 55 -189 23 -74 44 -144 47 -155 3 -11 21 -72 40
-135 20 -63 39 -128 43 -145 33 -123 127 -342 158 -368 12 -9 22 -3 52 32 21
24 41 58 46 75 13 57 13 163 -2 233 -8 37 -16 77 -18 88 -12 64 -130 430 -161
500 -7 16 -28 64 -45 105 -84 194 -108 235 -143 237 -17 1 -35 -6 -47 -19z"/>
<path d="M3151 5260 c-43 -119 -63 -252 -64 -435 -1 -93 2 -197 7 -230 15
-126 26 -198 31 -204 2 -4 6 -29 10 -56 3 -27 8 -51 10 -54 3 -2 18 7 33 22
30 29 59 99 66 162 19 155 25 453 11 540 -4 28 -7 57 -7 65 0 38 -52 226 -68
243 -4 4 -17 -19 -29 -53z"/>
<path d="M4064 4913 c-180 -239 -255 -447 -249 -687 3 -94 11 -113 71 -172
l35 -33 69 140 c108 218 177 404 203 547 13 67 13 90 3 149 -8 48 -52 123 -72
123 -5 0 -32 -30 -60 -67z"/>
<path d="M1228 4833 c-52 -44 -67 -66 -68 -99 0 -66 154 -240 360 -405 58 -46
110 -89 117 -96 7 -6 73 -56 146 -111 174 -131 238 -163 313 -156 60 5 94 15
94 25 0 6 -14 40 -32 77 -56 116 -86 151 -327 372 -9 8 -33 27 -53 42 -20 15
-42 34 -50 41 -7 7 -78 62 -158 121 -80 59 -152 113 -160 119 -35 27 -139 97
-143 97 -3 0 -20 -12 -39 -27z"/>
<path d="M4918 4315 c-42 -12 -88 -29 -103 -39 l-27 -18 23 -12 c13 -7 78 -41
144 -76 66 -34 135 -71 152 -82 l33 -20 32 23 c18 13 39 29 46 36 7 7 19 16
26 20 25 15 66 86 66 115 0 29 -16 41 -73 52 -12 3 -33 8 -47 12 -63 16 -197
11 -272 -11z"/>
<path d="M2940 4117 c-3 -2 -30 -7 -60 -11 -88 -11 -102 -13 -150 -26 -25 -7
-52 -13 -60 -15 -33 -7 -149 -50 -216 -80 -63 -29 -231 -128 -244 -144 -3 -3
-23 -19 -45 -35 -63 -46 -252 -243 -275 -287 -7 -13 -19 -30 -27 -37 -30 -31
-171 -299 -173 -330 0 -4 -7 -28 -15 -53 -9 -25 -18 -57 -21 -70 -3 -13 -7
-33 -9 -44 -12 -53 -16 -75 -22 -135 -12 -107 -6 -303 12 -420 2 -19 16 -75
30 -125 14 -49 26 -96 27 -102 1 -7 5 -13 9 -13 4 0 10 -13 14 -30 9 -40 95
-197 156 -285 81 -117 175 -216 300 -319 40 -33 162 -113 219 -144 95 -51 292
-121 342 -123 4 0 22 -4 40 -10 57 -16 149 -23 293 -23 155 0 234 7 334 30 89
21 84 20 101 27 8 4 37 14 63 22 86 29 238 106 284 145 7 5 15 10 18 10 4 0
23 12 43 27 315 233 506 524 578 883 27 139 27 396 0 565 -10 59 -40 172 -48
183 -6 6 -8 12 -5 12 7 0 -37 107 -66 160 -10 19 -29 53 -40 75 -85 157 -256
339 -435 463 -42 30 -84 57 -92 60 -8 3 -36 18 -62 33 -105 62 -318 133 -463
155 -53 8 -329 17 -335 11z"/>
<path d="M900 3788 c-56 -33 -68 -118 -24 -175 14 -18 29 -33 34 -33 4 0 36
-16 69 -35 34 -19 64 -34 66 -34 3 -1 21 -7 41 -16 43 -18 157 -52 199 -59 17
-3 41 -8 55 -12 72 -17 348 -9 368 11 6 5 -55 64 -108 103 -19 15 -37 30 -40
33 -19 25 -319 157 -395 174 -10 2 -33 10 -70 25 -38 14 -130 38 -148 37 -9 0
-31 -9 -47 -19z"/>
<path d="M215 3040 c-29 -15 -30 -17 -30 -88 -1 -40 4 -77 10 -82 17 -14 155
-51 265 -71 202 -37 457 -42 680 -14 42 5 129 31 181 54 57 26 81 51 75 82 -3
13 -5 27 -5 30 -1 4 -22 10 -48 14 -27 5 -55 10 -63 11 -21 5 -143 12 -300 20
-74 3 -151 7 -170 9 -68 6 -155 16 -185 21 -16 3 -46 7 -65 9 -240 23 -307 24
-345 5z"/>
<path d="M1385 2011 c-90 -32 -407 -158 -475 -189 -25 -11 -76 -33 -115 -50
-168 -72 -266 -123 -258 -135 13 -22 56 -52 99 -69 58 -23 187 -18 274 12 209
71 456 191 570 276 117 87 143 141 81 166 -52 21 -95 18 -176 -11z"/>
<path d="M4450 1867 c-14 -7 -33 -27 -42 -46 -16 -33 -16 -35 9 -85 14 -28 29
-52 34 -54 5 -2 9 -10 9 -17 0 -22 139 -143 240 -209 271 -178 231 -163 364
-135 l59 12 -24 20 c-170 136 -328 288 -329 315 0 6 -4 12 -8 12 -4 0 -21 25
-37 55 -17 30 -36 55 -42 55 -7 0 -13 4 -13 9 0 11 -126 69 -165 75 -16 3 -41
0 -55 -7z"/>
<path d="M1663 1474 c-65 -29 -120 -87 -207 -219 -88 -133 -177 -244 -311
-389 -12 -13 -122 -143 -146 -173 -9 -11 -28 -40 -43 -65 l-25 -44 20 -32 c11
-19 37 -41 61 -52 40 -18 44 -18 72 -2 77 44 181 145 295 288 53 67 103 132
111 144 8 12 26 36 38 53 131 177 208 338 227 474 6 41 5 43 -19 41 -14 -1
-47 -12 -73 -24z"/>
<path d="M3827 1284 c-2 -2 -14 -5 -28 -7 -33 -5 -35 -38 -9 -134 25 -91 64
-183 121 -284 44 -78 247 -390 259 -399 4 -3 9 -12 12 -20 7 -22 45 56 55 116
20 110 -7 231 -91 410 -76 160 -155 267 -221 298 -32 15 -91 27 -98 20z"/>
<path d="M2282 980 c-154 -312 -204 -454 -226 -640 -7 -62 38 -121 112 -144
26 -8 35 5 116 164 79 156 146 340 161 440 4 24 8 47 10 50 2 4 6 28 10 55 15
126 4 178 -53 245 l-29 34 -101 -204z"/>
<path d="M3113 1148 c-21 -30 -137 -296 -188 -433 -12 -33 -55 -141 -95 -239
-121 -302 -146 -398 -110 -429 78 -66 108 -61 170 31 66 97 121 209 174 352
41 115 80 237 90 285 3 11 11 49 20 84 9 39 14 101 13 155 -2 75 -7 101 -29
149 -29 61 -31 63 -45 45z"/>
</g>
</svg>
