<svg id="Слой_1" data-name="Слой 1" xmlns="http://www.w3.org/2000/svg" xmlns:xlink="http://www.w3.org/1999/xlink" viewBox="0 0 1679.42 545.09"><defs><style>.cls-1{fill:none;}.cls-2{clip-path:url(#clip-path);}.cls-3{fill:#eaa124;}.cls-4{fill:#1b48ed;}</style><clipPath id="clip-path" transform="translate(0 -133.69)"><rect class="cls-1" x="4.43" y="4.5" width="1679" height="872"/></clipPath></defs><title>LOGO_3</title><g class="cls-2"><path class="cls-3" d="M213,194.83c-4.47-19.63-20-44.6-1-61.13,15.45,26.88,25.68,56.41,34.12,86.11,3.21,15.47,9.47,36.51-7.46,46.46C226,244.07,220.48,219,213,194.83" transform="translate(0 -133.69)"/><path class="cls-3" d="M300.54,251.36c-7.41-34.35-10.81-72.18,2.81-105.47,10.41,22.46,9.29,47.83,8.35,71.92-1.43,11.62-.13,26-11.16,33.55" transform="translate(0 -133.69)"/><path class="cls-3" d="M367.57,261.44c-3-30.19,10.72-59.19,30.59-81.34,10.63,9.11,8.75,23.3,5.4,35.41-5.71,21.44-15.32,41.6-25.72,61.09-4-4.55-10.72-8.22-10.27-15.16" transform="translate(0 -133.69)"/><path class="cls-3" d="M103.52,210.83c-5.94-8.53,3.48-13.66,9.15-18.52,26.71,18.88,53.54,37.93,76.55,61.22,7.68,7.29,12.28,16.89,16.08,26.57-18.67,8.22-33.36-8.22-47.16-18-19.16-15.91-40.77-30.19-54.62-51.23" transform="translate(0 -133.69)"/><path class="cls-3" d="M464.57,252.87c15-10.17,35.41-10,51.85-3.27,2.68,10.74-9.42,16.4-16.35,22.1a533.29,533.29,0,0,1-85.7,43.14c-7.41,4-12.91-4.91-18.44-8.13,21.17-19.94,43.72-38.63,68.64-53.84" transform="translate(0 -133.69)"/><path class="cls-3" d="M265.66,269.36c71.81-15.21,149.11,33.2,166.75,103.48,9.51,39.25,4.51,83.14-19,116.83-22.19,31.92-57,56-96.06,62.15-33,5-68.28.18-97.26-16.93C177.19,509.6,146.38,462.26,147.59,412c-2.86-67.5,51.13-131.46,118.08-142.6" transform="translate(0 -133.69)"/><path class="cls-3" d="M76.81,320.37c-12.19-6.81-4.69-27,9.34-21.57,25.1,8.4,53.72,15.74,71.27,36.77-27.38,5.84-57-.84-80.61-15.2" transform="translate(0 -133.69)"/><path class="cls-3" d="M8.22,373.94c21.84-2,43.45,3.54,65.2,4.82,17.19,1.59,34.79,0,51.58,4.55,5.5,10.3-12.1,12.73-19,15.92-35,5.83-72.57,3.4-106-9,2.37-5.48,1.65-13.61,8.22-16.27" transform="translate(0 -133.69)"/><path class="cls-3" d="M38.63,514c29.07-14.54,59.44-26.52,89.81-38,6.25-2.87,23.22,0,14.83,9.24-16.48,16.53-39.25,24.93-60.6,33.51-14.25,5.79-33.45,9.46-44-4.73" transform="translate(0 -133.69)"/><path class="cls-3" d="M425.37,500.5c2.54-17.82,21.08-5.92,30.05-.22,8.93,19.32,26.93,31.87,42.83,45.22-6,1.15-12.06,2.3-18.09,3.49-19.52-13.88-46.31-24.71-54.79-48.49" transform="translate(0 -133.69)"/><path class="cls-3" d="M126.07,561.5c9.6-13.3,16.75-31.52,35.86-32.8-1.29,23.38-16.52,42.3-29.56,60.65-11.88,15-23.22,31.74-40.51,41.11-6.3-.66-10.54-5-12.9-10.48,12.64-21.75,33.09-37.66,47.11-58.48" transform="translate(0 -133.69)"/><path class="cls-3" d="M362.4,552.17c18.35-8,28.49,11.94,35.68,25.11,8.84,17.81,18.62,39.83,6.57,58.53-16.7-26.17-38.54-51.9-42.25-83.63" transform="translate(0 -133.69)"/><path class="cls-3" d="M224.41,560.26c4.42,5.7,10,11.54,8.66,19.4-1.34,28.82-13.71,56.1-28.36,80.63-6-3.14-14.87-6.23-13.35-14.72,3.22-30.68,19.65-58,33-85.31" transform="translate(0 -133.69)"/><path class="cls-3" d="M267.46,634.75c10.18-24.22,18.58-49.2,30.46-72.67,8.93,10.92,8,25.15,5.23,38.1-6.52,26.17-15,53-31,75.06-4.55,7.51-11.43,1.33-15.94-2.39.13-13.53,6.57-25.77,11.3-38.1" transform="translate(0 -133.69)"/><path class="cls-4" d="M236.27,298.13c17.38-5.78,36.15-8.11,54.74-7.86a214.87,214.87,0,0,1,53.14,6.1c12.47,3.3,24.39,8,36.08,12.9v54.69h-6.89c-11.12-8.33-22.66-16.44-35.88-22.21-9.26-4-19.12-7.3-29.51-8.15-15.7-1.14-32.37,1-45.58,8.75a63.81,63.81,0,0,0-26,27.79c-6.58,13-8.6,27.29-8.38,41.32.09,14.76,2.9,29.87,11.3,42.92,7.81,12.92,21.44,23.31,37.69,27.72a86.81,86.81,0,0,0,52.18-1.37c17.13-5.51,31.57-15.51,45-25.92h6.11q0,27,0,54c-9.84,3.8-19.49,8-29.69,11.05-15.58,4.47-31.72,8.08-48.23,8.41-23.46,1-47.57-.76-69.47-8.49-26.92-9.29-49.26-27.81-61-50.6-7.93-15.06-11.64-31.53-12.79-48-1.6-24.84,1.59-50.58,14.58-73.14,12.78-22.48,35.31-41,62.64-49.93" transform="translate(0 -133.69)"/><path class="cls-4" d="M417.9,344.61c30.34-7.33,62.35-10.46,93.33-4.91,14.34,2.67,29.11,8.36,37.88,19.94,6.7,8.62,9.31,19.48,9.46,30V497.08H507.43c0-5.49,0-11,0-16.49-5.56,4.2-10.67,9-17,12.28-7.89,4.07-16.46,7.43-25.52,8.06-9.76.8-19.88.63-29.13-2.74-16.74-6-29.25-21.21-31.19-38-1.46-13.51.07-28.46,9.56-39.31,10.46-12.18,27-17.68,42.73-20.77,16.82-2.9,33.92-4.11,50.94-5.36-.07-6.86-2.35-14.53-9.16-18.05-10.6-5.45-23.15-5.61-34.93-5.38-13.83,1-27.07,5.39-39.8,10.35-1.91.73-4,.63-6,.8q0-18.93,0-37.86m50.12,86c-5.8,2.3-10.59,7.21-11.47,13.22S456,457.22,460.7,462c4.95,4.35,12.11,5.21,18.59,5.41,10.57.39,20.66-4.35,28.17-11.12-.06-10.76,0-21.52,0-32.27-13.21,1.59-27,1.55-39.41,6.59" transform="translate(0 -133.69)"/><path class="cls-4" d="M1021,356.53c11.59-8.94,24.45-17.75,39.67-19.76,15.83-2.31,33.35.39,45.61,10.68,14.51,12,21.23,30.2,23.8,47.8,2.58,20,2.13,41-5.67,60.06-6.88,16.52-19.79,31.38-37.11,38.85-11.57,5.1-24.72,5.67-37.21,4.27-10.38-1.19-20-5.38-29.09-10.08q0,32.39,0,64.78-25.67,0-51.33,0,0-106.33,0-212.65H1021c0,5.36,0,10.71,0,16.07m0,25.76q0,39.07,0,78.15c8.31,3,17.37,3.29,26.16,2.72,8.6-.72,17.15-4.45,22.32-11.14,6.87-8.79,8.64-20,9.14-30.68.21-10.93-.13-22.27-4.66-32.5a24.16,24.16,0,0,0-16.08-13.7c-12.67-3.2-26.21.41-36.89,7.15" transform="translate(0 -133.69)"/><path class="cls-4" d="M1170.9,343.62c20.1-4.66,40.72-8.11,61.49-7.66,17.36.17,35.27,1.69,51.24,8.6,11.87,5.06,21.45,14.87,25.14,26.73,3.87,10.72,2.58,22.14,2.79,33.24v91.54h-51.13c0-5.49,0-11,0-16.49-5.59,4.21-10.7,9.06-17,12.29-7.88,4.06-16.42,7.42-25.46,8-9.74.79-19.85.64-29.08-2.71-16.74-5.95-29.26-21.13-31.23-37.9-1.45-13.3-.07-28,9-38.81C1176,409,1191,403.34,1205.52,400c18.16-3.74,36.81-4.82,55.29-6.26-.12-6.59-2.11-14-8.47-17.63-8.65-4.91-19.11-5.66-29-5.86-13-.53-25.56,3-37.61,7.1-4.9,1.55-9.49,4.42-14.85,4.13,0-12.62,0-25.23,0-37.85m50.15,86c-5.79,2.3-10.59,7.18-11.49,13.17-.9,6.19-.6,13.43,4.16,18.25,4.94,4.31,12,5.17,18.5,5.38,10.6.41,20.72-4.33,28.24-11.12-.06-10.76,0-21.52,0-32.28-13.2,1.6-27,1.56-39.38,6.59" transform="translate(0 -133.69)"/><path class="cls-4" d="M1584,342.42a129,129,0,0,1,95.37,6v41.75l-6.65,0c-7.37-6.37-15.46-12.25-24.89-15.6a58,58,0,0,0-29.21-3,35.25,35.25,0,0,0-21.55,11.81c-7.43,8.6-10.55,19.81-11.12,30.72s.36,22,5.48,31.79c5,9.57,14.91,16.55,26,18.62,15.45,2.8,32.25-.24,44.95-9.18a95.89,95.89,0,0,0,10.26-8.7l6.76,0v41.73c-8.54,3.53-17.09,7.18-26.25,9.06-12.74,3.29-26.08,3.34-39.16,2.54-18.86-1.41-38.07-6.49-53-17.88-16.1-12.13-25.34-31-27.35-50.11-2-20.05-.21-41.46,11.09-59,8.64-14.2,23-25,39.25-30.46" transform="translate(0 -133.69)"/><path class="cls-4" d="M596.73,341.47h51.35q0,27,0,53.92h53.27q0-27,0-53.92h51.45v155.6H701.36q0-33.33,0-66.66H648.09q0,33.33,0,66.66H596.74q0-77.8,0-155.61" transform="translate(0 -133.69)"/><path class="cls-4" d="M783.1,341.48H936.92q0,16.83,0,33.68-25.62,0-51.25,0V497.08H834.34V375.15q-25.63,0-51.24,0,0-16.85,0-33.68" transform="translate(0 -133.69)"/><path class="cls-4" d="M1349.66,340.39h51.5v54h53.16q0-27,0-54h51.5V496.08h-51.5V429.49h-53.16v66.59h-51.5Z" transform="translate(0 -133.69)"/></g></svg>